<?xml version="1.0" encoding="iso-8859-1"?>
<!-- Uploaded to: SVG Repo, www.svgrepo.com, Generator: SVG Repo Mixer Tools -->
<svg fill="#000000" height="800px" width="800px" version="1.1" id="Layer_1" xmlns="http://www.w3.org/2000/svg" xmlns:xlink="http://www.w3.org/1999/xlink" 
	 viewBox="0 0 491.522 491.522" xml:space="preserve">
<g>
	<g>
		<g>
			<path d="M484.825,251.09l-225.28-204.8c-7.803-7.107-19.763-7.107-27.566,0L6.699,251.09c-4.26,3.871-6.697,9.38-6.697,15.155
				v71.844l232.018-209.92c7.803-7.066,19.681-7.066,27.484,0l232.018,209.92v-71.844
				C491.522,260.47,489.085,254.961,484.825,251.09z"/>
			<path d="M0,393.33v36.741c0,8.11,4.772,15.462,12.206,18.739c7.393,3.277,16.056,1.884,22.057-3.584L245.76,252.96
				l211.497,192.266c3.85,3.502,8.786,5.325,13.783,5.325c2.806,0,5.612-0.553,8.274-1.741c7.434-3.277,12.206-10.629,12.206-18.739
				V393.33L245.76,170.979L0,393.33z"/>
		</g>
	</g>
</g>
</svg>